<svg width="60" height="61" viewBox="0 0 60 61" fill="none" xmlns="http://www.w3.org/2000/svg">
<path d="M54.027 48.0535L56.1264 60.7667H38.6312H37.6981H22.3023H21.3692H3.87402L5.97345 48.0535C6.28448 46.1096 7.08148 44.399 8.36446 42.9216C9.64745 41.4442 11.222 40.3945 13.0882 39.7725L21.3692 36.9732V35.6902H23.2354V38.3728L19.9696 39.4226L24.5184 47.7036L27.4343 49.2199C27.6675 49.2199 27.8619 49.2199 28.0174 49.2199H28.3673L23.352 40.0057L25.1016 39.0727L30.0002 48.1702L34.8989 39.0727L36.6484 40.0057L31.6331 49.2199H31.983C32.1385 49.2199 32.3329 49.2199 32.5662 49.2199L35.4821 47.7036L40.0308 39.4226L36.765 38.3728V35.6902H38.6312V36.9732L46.9123 39.7725C48.1564 40.1612 49.2838 40.7639 50.2947 41.5803C51.3055 42.3967 52.1414 43.3493 52.8023 44.4379C53.4633 45.5264 53.8715 46.7317 54.027 48.0535ZM41.897 40.0057L38.6312 46.0707L46.7956 41.7553L46.5624 41.6386L46.3291 41.522L41.897 40.0057ZM29.0671 51.086V53.0688H30.9333V51.086H29.0671ZM13.6713 41.522C13.5936 41.522 13.5158 41.5609 13.4381 41.6386C13.3603 41.7164 13.2826 41.7553 13.2048 41.7553L21.3692 46.0707L18.1035 40.0057L13.6713 41.522ZM21.3692 55.9847C21.3692 53.341 22.5356 51.3582 24.8683 50.0363L11.222 42.805C9.35586 44.2046 8.22839 46.0707 7.83961 48.4034L6.09008 58.7839H12.7383L13.6713 50.0363L15.5375 50.2696L14.7211 58.7839H21.3692V55.9847ZM23.2354 58.7839C24.324 58.5507 25.2376 57.9869 25.9763 57.0927C26.715 56.1985 27.0843 55.1683 27.0843 54.0019V53.0688V51.2027C25.9958 51.4359 25.0821 51.9997 24.3434 52.8939C23.6047 53.7881 23.2354 54.8183 23.2354 55.9847V58.7839ZM26.9677 58.7839H33.0327C31.9441 57.7731 31.2832 56.4901 31.0499 54.935H28.9505C28.7172 56.4901 28.0563 57.7731 26.9677 58.7839ZM36.765 58.7839V55.9847C36.765 54.8183 36.3957 53.7881 35.657 52.8939C34.9183 51.9997 34.0047 51.4359 32.9161 51.2027V53.0688V54.0019C32.9161 55.1683 33.2854 56.1985 34.0241 57.0927C34.7628 57.9869 35.6764 58.5507 36.765 58.7839ZM47.2622 58.7839H53.9104L52.1608 48.2868C51.772 46.0319 50.6446 44.2046 48.7784 42.805L35.1322 50.0363C37.4648 51.3582 38.6312 53.341 38.6312 55.9847V58.7839H45.2794L44.4629 50.2696L46.3291 50.0363L47.2622 58.7839ZM13.6713 22.2772C13.6713 20.6444 14.2934 19.3614 15.5375 18.4283L13.4381 7.81453H17.7536C19.0754 5.7151 20.8249 4.06277 23.0021 2.85754C25.1793 1.65232 27.512 1.04971 30.0002 1.04971C31.2443 1.04971 32.4496 1.20522 33.6159 1.51624C34.7822 1.82727 35.8903 2.27437 36.94 2.85754C37.9897 3.44072 38.9617 4.14053 39.8559 4.95697C40.7501 5.77341 41.5471 6.72593 42.2469 7.81453H46.5624L44.4629 18.4283C45.707 19.3614 46.3291 20.6444 46.3291 22.2772C46.3291 23.4436 45.9209 24.4933 45.1044 25.4264C44.288 26.3595 43.2966 26.9038 42.1302 27.0593C41.5859 28.7699 40.6917 30.2473 39.4476 31.4914L35.7153 35.2237C34.7045 36.2345 33.5381 36.74 32.2163 36.74H27.7842C26.4623 36.74 25.2959 36.2345 24.2851 35.2237L20.5528 31.4914C19.3087 30.2473 18.4145 28.7699 17.8702 27.0593C16.7039 26.9038 15.7125 26.3595 14.896 25.4264C14.0796 24.4933 13.6713 23.4436 13.6713 22.2772ZM40.614 24.0268V19.3614H19.3865V24.0268C19.3865 26.4372 20.2418 28.4978 21.9524 30.2084L25.6847 33.9407C26.229 34.485 26.9288 34.7572 27.7842 34.7572H32.2163C33.0716 34.7572 33.7714 34.485 34.3157 33.9407L38.048 30.2084C39.7587 28.4978 40.614 26.4372 40.614 24.0268ZM42.4801 24.9598C43.802 24.4933 44.4629 23.5991 44.4629 22.2772C44.4629 20.8776 43.802 19.9445 42.4801 19.478V24.0268C42.4801 24.3378 42.4801 24.6488 42.4801 24.9598ZM39.7975 7.81453C37.3093 4.62651 34.0436 3.0325 30.0002 3.0325C25.9569 3.0325 22.6911 4.62651 20.2029 7.81453H39.7975ZM44.2297 9.68068H15.7708L16.5872 13.5296H40.614V15.5124H16.9371L17.287 17.3786H42.7134L44.2297 9.68068ZM17.5203 19.478C16.1984 19.9445 15.5375 20.8776 15.5375 22.2772C15.5375 23.5991 16.1984 24.4933 17.5203 24.9598C17.5203 24.6488 17.5203 24.3378 17.5203 24.0268V19.478Z" fill="#30A8D5"/>
</svg>
