<svg width="60" height="61" viewBox="0 0 60 61" fill="none" xmlns="http://www.w3.org/2000/svg">
<path d="M56.8259 3.26578C57.3702 3.26578 57.6423 3.53793 57.6423 4.08222V48.9866C57.6423 51.6303 56.7092 53.8853 54.8431 55.7514C52.9769 57.6176 50.722 58.5507 48.0783 58.5507H35.4817C33.8488 58.5507 32.3326 58.1619 30.9329 57.3843C29.5333 56.6068 28.3864 55.5376 27.4922 54.1769C26.598 52.8161 26.0732 51.3582 25.9177 49.8031H24.0515C23.5072 49.8031 23.2351 49.5309 23.2351 48.9866C23.2351 48.4423 23.5072 48.1702 24.0515 48.1702H33.2656C33.8877 48.1702 34.1987 48.4423 34.1987 48.9866C34.1987 49.5309 33.8877 49.8031 33.2656 49.8031H31.7494C31.8271 50.1918 32.0021 50.5612 32.2742 50.9111C32.5464 51.261 32.838 51.572 33.149 51.8442C33.46 52.1163 33.8099 52.3302 34.1987 52.4857C34.5875 52.6412 35.0152 52.7189 35.4817 52.7189H48.0783C49.0891 52.7189 49.9639 52.3496 50.7025 51.6109C51.4412 50.8722 51.8106 49.9975 51.8106 48.9866V40.239C49.4001 44.1268 45.5901 46.0708 40.3804 46.0708C37.9699 46.0708 35.9871 44.8655 34.432 42.4551C32.6436 43.3104 30.7774 43.7769 28.8335 43.8547H28.6003C26.6563 43.7769 24.7513 43.3104 22.8851 42.4551C21.33 44.8655 19.3861 46.0708 17.0534 46.0708C15.0317 46.0708 13.2239 45.7597 11.6299 45.1377C10.0359 44.5156 8.73346 43.7575 7.72262 42.8633C6.71179 41.9691 5.83703 40.8027 5.09834 39.3643C4.35965 37.9258 3.81536 36.6428 3.46545 35.5153C3.11555 34.3878 2.86284 32.9688 2.70733 31.2581C2.55181 29.5475 2.45462 28.2645 2.41574 27.4092C2.37686 26.5539 2.35742 25.4264 2.35742 24.0268V23.6769C2.35742 21.9662 3.11555 20.5666 4.6318 19.478C6.14805 18.3894 8.28636 17.5924 11.0467 17.087C13.8071 16.5816 16.548 16.2317 19.2695 16.0373C21.9909 15.8429 25.1401 15.7457 28.7169 15.7457C40.3804 15.7457 48.0783 16.7954 51.8106 18.8948V4.08222C51.8106 3.53793 52.0827 3.26578 52.627 3.26578H56.8259ZM28.8335 42.2218C30.4664 42.144 32.0604 41.7553 33.6155 41.0555C33.3045 40.5112 32.8769 39.6558 32.3326 38.4895C31.866 37.4009 31.4967 36.5845 31.2245 36.0402C30.9524 35.4959 30.583 34.9904 30.1165 34.5239C29.65 34.0574 29.164 33.8241 28.6586 33.8241C28.1532 33.8241 27.6866 34.0574 27.259 34.5239C26.8313 34.9904 26.4814 35.4959 26.2092 36.0402C25.9371 36.5845 25.5289 37.4009 24.9846 38.4895C24.518 39.6558 24.1293 40.5112 23.8182 41.0555C25.2956 41.7553 26.8896 42.144 28.6003 42.2218H28.8335ZM40.3804 44.4379C42.1688 44.4379 43.7628 44.1463 45.1624 43.5631C46.562 42.9799 47.7089 42.2996 48.6031 41.522C49.4973 40.7444 50.2749 39.6947 50.9358 38.3729C51.5967 37.051 52.0827 35.8846 52.3938 34.8738C52.7048 33.863 52.938 32.5606 53.0936 30.9665C53.2491 29.3725 53.3463 28.1673 53.3851 27.3509C53.424 26.5344 53.4046 25.4264 53.3268 24.0268V23.6769C53.3268 22.666 52.938 21.8107 52.1605 21.1109C52.0827 21.1109 52.0438 21.072 52.0438 20.9943C49.1669 18.5838 41.3912 17.3786 28.7169 17.3786C12.2325 17.3786 3.99031 19.478 3.99031 23.6769V24.0268C3.99031 25.1931 4.00975 26.1262 4.04863 26.826C4.0875 27.5258 4.14582 28.5755 4.22358 29.9751C4.30134 31.3748 4.45685 32.5217 4.69012 33.4159C4.92339 34.3101 5.23441 35.3792 5.6232 36.6233C6.01198 37.8674 6.53684 38.8977 7.19777 39.7142C7.8587 40.5306 8.61682 41.3276 9.47214 42.1052C10.3275 42.8827 11.4161 43.4659 12.7379 43.8547C14.0598 44.2435 15.4983 44.4379 17.0534 44.4379C17.7532 44.4379 18.3947 44.3018 18.9779 44.0296C19.5611 43.7575 20.047 43.4465 20.4358 43.0966C20.8246 42.7467 21.2328 42.2218 21.6605 41.522C22.0881 40.8222 22.4186 40.239 22.6519 39.7725C22.8851 39.3059 23.1962 38.645 23.585 37.7897C24.1293 36.5456 24.5764 35.6125 24.9263 34.9904C25.2762 34.3684 25.7816 33.7463 26.4425 33.1243C27.1034 32.5022 27.8421 32.1912 28.6586 32.1912C29.475 32.1912 30.2331 32.5022 30.9329 33.1243C31.6328 33.7463 32.1576 34.3684 32.5075 34.9904C32.8574 35.6125 33.3045 36.5456 33.8488 37.7897C34.3154 38.8783 34.7041 39.7142 35.0152 40.2973C35.3262 40.8805 35.7539 41.5414 36.2981 42.2801C36.8424 43.0188 37.4451 43.5631 38.106 43.913C38.7669 44.2629 39.525 44.4379 40.3804 44.4379ZM56.0094 48.9866V4.89867H53.4435V20.1778C54.5321 21.1109 55.0764 22.2773 55.0764 23.6769V24.0268C55.0764 29.5475 54.5321 33.8241 53.4435 36.8566V48.9866C53.4435 50.464 52.9186 51.7275 51.8689 52.7773C50.8192 53.827 49.5556 54.3518 48.0783 54.3518H35.4817C34.1598 54.3518 32.9741 53.9047 31.9243 53.0105C30.8746 52.1163 30.272 51.0472 30.1165 49.8031H27.5505C27.7061 51.747 28.5614 53.4187 30.1165 54.8184C31.6716 56.218 33.46 56.9178 35.4817 56.9178H48.0783C50.2554 56.9178 52.1216 56.1402 53.6767 54.5851C55.2319 53.03 56.0094 51.1638 56.0094 48.9866ZM50.5276 22.5105C50.9941 22.8993 51.2274 23.4047 51.2274 24.0268C51.3052 25.5041 51.3052 26.7871 51.2274 27.8757C51.1496 28.9643 51.033 30.1695 50.8775 31.4914C50.722 32.8133 50.4887 33.9602 50.1777 34.9321C49.8667 35.9041 49.439 36.876 48.8947 37.848C48.3504 38.82 47.6895 39.617 46.9119 40.239C46.1343 40.8611 45.2013 41.3665 44.1127 41.7553C43.0241 42.144 41.78 42.3384 40.3804 42.3384C39.4473 42.3384 38.6697 41.9302 38.0477 41.1138C37.4256 40.2973 36.6481 38.9171 35.715 36.9732C35.2484 35.8846 34.8597 35.0488 34.5486 34.4656C34.2376 33.8824 33.7905 33.202 33.2073 32.4245C32.6242 31.6469 31.9632 31.0637 31.2245 30.675C30.4858 30.2862 29.65 30.0918 28.7169 30.0918C27.9393 30.0918 27.2201 30.2473 26.5591 30.5583C25.8982 30.8693 25.3539 31.2193 24.9263 31.608C24.4986 31.9968 24.0515 32.5411 23.585 33.2409C23.1184 33.9407 22.7685 34.5239 22.5352 34.9904C22.302 35.457 21.9909 36.1179 21.6022 36.9732C20.7468 38.9171 20.0082 40.2973 19.3861 41.1138C18.7641 41.9302 17.9865 42.3384 17.0534 42.3384C15.1095 42.3384 13.4377 41.9691 12.0381 41.2304C10.6385 40.4917 9.56934 39.5781 8.83065 38.4895C8.09197 37.4009 7.50879 35.9818 7.08113 34.2323C6.65347 32.4828 6.38132 30.8693 6.26469 29.392C6.14805 27.9146 6.08974 26.1262 6.08974 24.0268C6.08974 23.4047 6.32301 22.8993 6.78954 22.5105C8.03365 21.5774 10.3275 20.8388 13.671 20.2945C17.2478 19.7502 22.2437 19.478 28.6586 19.478C35.0735 19.478 40.1082 19.7502 43.7628 20.2945C47.0285 20.8388 49.2835 21.5774 50.5276 22.5105ZM40.3804 40.7055C43.8017 40.7055 46.2121 39.4614 47.6117 36.9732C49.0113 34.485 49.7112 30.1695 49.7112 24.0268C49.7112 23.949 49.6723 23.8713 49.5945 23.7935C48.5059 23.0159 46.4843 22.3939 43.5295 21.9273C39.9527 21.3831 34.9957 21.1109 28.6586 21.1109C22.3214 21.1109 17.4033 21.3831 13.9043 21.9273C10.8718 22.3939 8.85009 23.0159 7.83926 23.7935C7.7615 23.8713 7.72262 23.949 7.72262 24.0268C7.72262 30.1695 8.42243 34.485 9.82205 36.9732C11.2217 39.4614 13.6321 40.7055 17.0534 40.7055C17.7532 40.7055 18.7641 39.2282 20.0859 36.2734C20.6302 35.1848 21.0773 34.3101 21.4272 33.6491C21.7771 32.9882 22.302 32.1912 23.0018 31.2581C23.7016 30.3251 24.5375 29.6252 25.5094 29.1587C26.4814 28.6922 27.5505 28.4589 28.7169 28.4589C29.8832 28.4589 30.9524 28.6922 31.9243 29.1587C32.8963 29.6252 33.7322 30.3251 34.432 31.2581C35.1318 32.1912 35.6567 32.9882 36.0066 33.6491C36.3565 34.3101 36.7647 35.1848 37.2312 36.2734C38.5531 39.2282 39.6028 40.7055 40.3804 40.7055Z" fill="#30A8D5"/>
</svg>
