<svg width="60" height="61" viewBox="0 0 60 61" fill="none" xmlns="http://www.w3.org/2000/svg">
<path d="M56.7095 27.7591C57.5648 27.7591 58.3035 28.0701 58.9255 28.6922C59.5476 29.3142 59.8586 30.0529 59.8586 30.9082C59.8586 31.7635 59.5476 32.5022 58.9255 33.1243C58.3035 33.7463 57.5648 34.0574 56.7095 34.0574H51.4609C50.9944 37.0899 49.9447 39.928 48.3118 42.5717C48.0785 42.9605 47.7675 43.3881 47.3787 43.8547L51.111 47.4704C51.7331 48.0924 52.0441 48.8505 52.0441 49.7447C52.0441 50.6389 51.7331 51.3971 51.111 52.0191C50.8777 52.2524 50.5667 52.4468 50.1779 52.6023C48.8561 53.3021 47.6508 53.1077 46.5623 52.0191L42.9466 48.2868C41.858 49.1421 40.7305 49.8419 39.5642 50.3862C39.0199 50.6973 38.6311 50.5417 38.3978 49.9197C38.1645 49.4531 38.2812 49.1032 38.7477 48.87C42.0913 47.1593 44.7739 44.7489 46.7955 41.6386C48.8949 38.3728 49.9447 34.796 49.9447 30.9082C49.9447 25.3875 48.0007 20.6832 44.1129 16.7954C40.2251 12.9076 35.5208 10.9637 30.0001 10.9637C26.19 10.9637 22.6521 11.9745 19.3863 13.9962C16.1983 16.0178 13.7879 18.7004 12.155 22.044C11.9217 22.5105 11.5329 22.6271 10.9886 22.3939C10.4443 22.1606 10.3277 21.7718 10.6387 21.2275C11.183 20.0612 11.844 18.9726 12.6215 17.9618L8.88921 14.3461C8.26716 13.724 7.95613 12.9659 7.95613 12.0717C7.95613 11.1775 8.26716 10.4194 8.88921 9.79731C9.12248 9.56404 9.43351 9.36966 9.82229 9.21414C11.1442 8.51433 12.3494 8.70872 13.438 9.79731L17.0536 13.5296C17.5202 13.1408 17.9867 12.8298 18.4533 12.5965C21.0192 10.9637 23.8185 9.91395 26.851 9.44741V4.19884C26.851 3.34352 27.162 2.60484 27.784 1.98278C28.4061 1.36073 29.1448 1.04971 30.0001 1.04971C30.5444 1.04971 31.0693 1.18578 31.5747 1.45793C32.0801 1.73008 32.4689 2.11886 32.741 2.62428C33.0132 3.12969 33.1493 3.65455 33.1493 4.19884V9.44741C36.7261 9.99171 39.9918 11.3524 42.9466 13.5296L46.5623 9.79731C47.1065 9.25302 47.7675 8.94199 48.545 8.86424C50.0224 8.70872 51.0916 9.31134 51.7525 10.6721C52.4134 12.0328 52.1996 13.2575 51.111 14.3461L47.3787 17.9618C49.5559 20.9165 50.9166 24.1823 51.4609 27.7591H56.7095ZM13.6712 16.5621C14.2933 15.8623 14.9542 15.2014 15.654 14.5793L12.155 11.0803C11.4552 10.3805 10.7748 10.361 10.1139 11.022C9.45295 11.6829 9.47239 12.3633 10.1722 13.0631L13.6712 16.5621ZM28.6005 9.21414C29.067 9.21414 29.5336 9.21414 30.0001 9.21414C30.4667 9.21414 30.9332 9.21414 31.3997 9.21414V4.19884C31.3997 3.96558 31.3414 3.73231 31.2248 3.49903C31.1081 3.26577 30.9332 3.09081 30.6999 2.97418C30.4667 2.85754 30.2334 2.79923 30.0001 2.79923C29.6113 2.79923 29.2809 2.9353 29.0087 3.20745C28.7366 3.4796 28.6005 3.81006 28.6005 4.19884V9.21414ZM44.2296 14.5793C45.0071 15.2014 45.7069 15.9012 46.329 16.6788L49.828 13.0631C50.5278 12.3633 50.5473 11.6829 49.8863 11.022C49.2254 10.361 48.545 10.3805 47.8452 11.0803L44.2296 14.5793ZM49.828 48.7533L46.329 45.2543C45.7069 45.9541 45.046 46.615 44.3462 47.2371L47.8452 50.7361C48.545 51.4359 49.2254 51.4554 49.8863 50.7944C50.5473 50.1335 50.5278 49.4531 49.828 48.7533ZM56.7095 32.3078C56.9427 32.3078 57.176 32.2495 57.4093 32.1329C57.6426 32.0162 57.8175 31.8413 57.9341 31.608C58.0508 31.3748 58.1091 31.1415 58.1091 30.9082C58.1091 30.5194 57.973 30.189 57.7009 29.9168C57.4287 29.6447 57.0983 29.5086 56.7095 29.5086H51.6942C51.6942 29.9751 51.6942 30.4417 51.6942 30.9082C51.6942 31.3748 51.6942 31.8413 51.6942 32.3078H56.7095ZM42.0135 42.9216C42.0135 42.9216 41.1776 43.7575 39.5058 45.4292C37.8341 47.101 34.6655 47.9369 30.0001 47.9369C25.3347 47.9369 21.3303 46.2651 17.9867 42.9216C14.6432 39.5781 12.9714 35.5736 12.9714 30.9082C12.9714 26.2428 14.6432 22.2384 17.9867 18.8948C21.3303 15.5513 25.3347 13.8795 30.0001 13.8795C34.6655 13.8795 38.67 15.5513 42.0135 18.8948C45.357 22.2384 47.0288 26.2428 47.0288 30.9082C47.0288 35.5736 45.357 39.5781 42.0135 42.9216ZM18.22 40.5889C18.842 41.3665 19.5419 42.0663 20.3194 42.6883L24.0517 38.956C23.2742 38.334 22.5744 37.6342 21.9523 36.8566L18.22 40.5889ZM15.0709 34.0574C15.4596 35.9235 16.1594 37.6342 17.1703 39.1893L21.0192 35.3403C20.786 34.9516 20.5916 34.5239 20.4361 34.0574H15.0709ZM17.1703 22.6271C16.1594 24.1823 15.4596 25.8929 15.0709 27.7591H20.4361C20.5916 27.2925 20.786 26.8649 21.0192 26.4761L17.1703 22.6271ZM25.568 21.9273C25.9568 21.6941 26.3844 21.4997 26.851 21.3442V15.979C24.9848 16.3677 23.2742 17.0676 21.719 18.0784L25.568 21.9273ZM30.0001 22.6271C28.5227 22.6271 27.1426 22.9965 25.8596 23.7352C24.5766 24.4739 23.5658 25.4847 22.8271 26.7677C22.0884 28.0507 21.719 29.4308 21.719 30.9082C21.719 33.1632 22.5355 35.1071 24.1684 36.74C25.8013 38.3728 27.7452 39.1893 30.0001 39.1893C32.2551 39.1893 34.199 38.3728 35.8319 36.74C37.4647 35.1071 38.2812 33.1632 38.2812 30.9082C38.2812 28.6533 37.4647 26.7094 35.8319 25.0765C34.199 23.4436 32.2551 22.6271 30.0001 22.6271ZM33.1493 21.3442C33.6158 21.4997 34.0434 21.6941 34.4322 21.9273L38.2812 18.0784C36.7261 17.0676 35.0154 16.3677 33.1493 15.979V21.3442ZM44.9294 27.7591C44.5406 25.8929 43.8408 24.1823 42.8299 22.6271L38.981 26.4761C39.2143 26.8649 39.4086 27.2925 39.5642 27.7591H44.9294ZM42.8299 39.1893C43.8408 37.6342 44.5406 35.9235 44.9294 34.0574H39.5642C39.4086 34.5239 39.2143 34.9516 38.981 35.3403L42.8299 39.1893ZM39.9141 32.3078H45.1626C45.2404 31.8413 45.2793 31.3748 45.2793 30.9082C45.2793 30.4417 45.2404 29.9751 45.1626 29.5086H39.9141C39.9918 29.9751 40.0307 30.4417 40.0307 30.9082C40.0307 31.3748 39.9918 31.8413 39.9141 32.3078ZM34.4322 39.8891C34.0434 40.1224 33.6158 40.3168 33.1493 40.4723V45.8375C35.0154 45.4487 36.7261 44.7489 38.2812 43.738L34.4322 39.8891ZM26.851 40.4723C26.3844 40.3168 25.9568 40.1224 25.568 39.8891L21.719 43.738C23.2742 44.7489 24.9848 45.4487 26.851 45.8375V40.4723ZM20.0862 29.5086H14.8376C14.7598 29.9751 14.721 30.4417 14.721 30.9082C14.721 31.3748 14.7598 31.8413 14.8376 32.3078H20.0862C20.0084 31.8413 19.9695 31.3748 19.9695 30.9082C19.9695 30.4417 20.0084 29.9751 20.0862 29.5086ZM28.6005 46.0707C29.067 46.1485 29.5336 46.1874 30.0001 46.1874C30.4667 46.1874 30.9332 46.1485 31.3997 46.0707V40.8222C30.9332 40.8999 30.4667 40.9388 30.0001 40.9388C29.5336 40.9388 29.067 40.8999 28.6005 40.8222V46.0707ZM39.6808 42.6883C40.4584 42.0663 41.1582 41.3665 41.7802 40.5889L38.0479 36.8566C37.4259 37.6342 36.7261 38.334 35.9485 38.956L39.6808 42.6883ZM41.7802 21.2275C41.1582 20.45 40.4584 19.7502 39.6808 19.1281L35.9485 22.8604C36.7261 23.4825 37.4259 24.1823 38.0479 24.9598L41.7802 21.2275ZM31.3997 15.7457C30.9332 15.6679 30.4667 15.6291 30.0001 15.6291C29.5336 15.6291 29.067 15.6679 28.6005 15.7457V20.9943C29.067 20.9165 29.5336 20.8776 30.0001 20.8776C30.4667 20.8776 30.9332 20.9165 31.3997 20.9943V15.7457ZM20.3194 19.1281C19.5419 19.7502 18.842 20.45 18.22 21.2275L21.9523 24.9598C22.5744 24.1823 23.2742 23.4825 24.0517 22.8604L20.3194 19.1281ZM35.5986 50.0363C36.2206 49.8808 36.6094 50.0752 36.7649 50.6195C36.9204 51.1638 36.7261 51.5137 36.1818 51.6692C35.1709 51.9802 34.1601 52.2135 33.1493 52.369V57.6176C33.1493 58.4729 32.8382 59.2116 32.2162 59.8336C31.5941 60.4557 30.8554 60.7667 30.0001 60.7667C29.1448 60.7667 28.4061 60.4557 27.784 59.8336C27.162 59.2116 26.851 58.4729 26.851 57.6176V52.369C23.2742 51.8247 20.0084 50.464 17.0536 48.2868L13.438 52.0191C12.8159 52.6412 12.0578 52.9522 11.1636 52.9522C10.2694 52.9522 9.51126 52.6412 8.88921 52.0191C8.26716 51.3971 7.95613 50.6389 7.95613 49.7447C7.95613 48.8505 8.26716 48.0924 8.88921 47.4704L12.6215 43.8547C10.4443 40.8999 9.0836 37.6342 8.53931 34.0574H3.29074C2.43542 34.0574 1.69673 33.7463 1.07468 33.1243C0.452628 32.5022 0.141602 31.7635 0.141602 30.9082C0.141602 30.3639 0.277676 29.8391 0.549823 29.3336C0.821971 28.8282 1.21075 28.4394 1.71617 28.1673C2.22159 27.8951 2.74645 27.7591 3.29074 27.7591H8.53931C8.69482 26.6705 8.92809 25.6208 9.23912 24.6099C9.39463 24.0656 9.76397 23.8712 10.3471 24.0268C10.9303 24.1823 11.1053 24.5322 10.872 25.0765C10.3277 27.0204 10.0556 28.9643 10.0556 30.9082C10.0556 36.4289 11.9995 41.1332 15.8873 45.021C19.7751 48.9089 24.4794 50.8528 30.0001 50.8528C31.944 50.8528 33.8102 50.5806 35.5986 50.0363ZM3.29074 32.3078H8.30604C8.30604 31.8413 8.30604 31.3748 8.30604 30.9082C8.30604 30.4417 8.30604 29.9751 8.30604 29.5086H3.29074C2.90196 29.5086 2.57149 29.6447 2.29935 29.9168C2.0272 30.189 1.89112 30.5194 1.89112 30.9082C1.89112 31.297 2.0272 31.6275 2.29935 31.8996C2.57149 32.1718 2.90196 32.3078 3.29074 32.3078ZM12.155 50.7361L15.7707 47.2371C14.9931 46.615 14.2933 45.9152 13.6712 45.1377L10.1722 48.7533C9.47239 49.4531 9.45295 50.1335 10.1139 50.7944C10.7748 51.4554 11.4552 51.4359 12.155 50.7361ZM31.3997 57.6176V52.6023C30.9332 52.6023 30.4667 52.6023 30.0001 52.6023C29.5336 52.6023 29.067 52.6023 28.6005 52.6023V57.6176C28.6005 58.0064 28.7366 58.3368 29.0087 58.609C29.2809 58.8811 29.6113 59.0172 30.0001 59.0172C30.3889 59.0172 30.7194 58.8811 30.9915 58.609C31.2637 58.3368 31.3997 58.0064 31.3997 57.6176ZM30.0001 36.2734C28.5227 36.2734 27.2592 35.7486 26.2095 34.6988C25.1598 33.6491 24.6349 32.3856 24.6349 30.9082C24.6349 29.4308 25.1598 28.1673 26.2095 27.1176C27.2592 26.0679 28.5227 25.543 30.0001 25.543C31.4775 25.543 32.741 26.0679 33.7907 27.1176C34.8405 28.1673 35.3653 29.4308 35.3653 30.9082C35.3653 31.5303 35.0737 31.8413 34.4906 31.8413C33.9074 31.8413 33.6158 31.5303 33.6158 30.9082C33.6158 29.8974 33.2659 29.0421 32.5661 28.3423C31.8663 27.6424 31.0109 27.2925 30.0001 27.2925C28.9893 27.2925 28.134 27.6424 27.4341 28.3423C26.7343 29.0421 26.3844 29.8974 26.3844 30.9082C26.3844 31.9191 26.7343 32.7744 27.4341 33.4742C28.134 34.174 28.9893 34.5239 30.0001 34.5239C30.9332 34.5239 31.7496 34.174 32.4494 33.4742C32.8382 33.0854 33.2464 33.1048 33.6741 33.5325C34.1018 33.9602 34.0823 34.3684 33.6158 34.7572C32.605 35.768 31.3997 36.2734 30.0001 36.2734Z" fill="#30A8D5"/>
</svg>
